<svg xmlns="http://www.w3.org/2000/svg" width="32" height="32" id="graph"><g color="#000" font-family="sans-serif" font-weight="400"><path fill="#f8b84e" fill-rule="evenodd" style="line-height:normal;text-indent:0;text-align:start;text-decoration-line:none;text-decoration-style:solid;text-decoration-color:#000;text-transform:none;block-progression:tb;isolation:auto;mix-blend-mode:normal" d="M28.512 1024.59a.5.5 0 0 0-.102.986l2.963.77a.5.5 0 1 0 .252-.967l-2.965-.772a.5.5 0 0 0-.148-.018zm-1.826.416a.5.5 0 0 0-.309.113l-3.334 2.668a.5.5 0 1 0 .625.781l3.334-2.668a.5.5 0 0 0-.316-.894zm-10.647 3.355a.5.5 0 1 0 0 1H21.5a.5.5 0 1 0 0-1h-5.46zm-1.723.77a.5.5 0 0 0-.384.17l-3.102 3.445a.5.5 0 1 0 .744.67l3.102-3.445a.5.5 0 0 0-.36-.84zM.5 1032.357a.5.5 0 0 0-.283.918l3.543 2.424a.5.5 0 1 0 .564-.824l-3.543-2.426a.5.5 0 0 0-.281-.092Zm9.023 1.362a.5.5 0 0 0-.18.031l-3.427 1.246a.5.5 0 1 0 .342.94l3.428-1.246a.5.5 0 0 0-.163-.971z" overflow="visible" transform="translate(0 -1020.362)"></path><path fill="#f8b84e" style="line-height:normal;text-indent:0;text-align:start;text-decoration-line:none;text-decoration-style:solid;text-decoration-color:#000;text-transform:none;block-progression:tb;isolation:auto;mix-blend-mode:normal" d="M5 1034.361c-.823 0-1.5.678-1.5 1.5 0 .823.677 1.5 1.5 1.5s1.5-.677 1.5-1.5c0-.822-.677-1.5-1.5-1.5zm0 1c.282 0 .5.218.5.5 0 .282-.218.5-.5.5a.493.493 0 0 1-.5-.5c0-.282.218-.5.5-.5zm5.5-3c-.823 0-1.5.678-1.5 1.5 0 .823.677 1.5 1.5 1.5s1.5-.677 1.5-1.5c0-.822-.677-1.5-1.5-1.5zm0 1c.282 0 .5.218.5.5 0 .282-.218.5-.5.5a.493.493 0 0 1-.5-.5c0-.282.218-.5.5-.5zm4.5-6c-.823 0-1.5.678-1.5 1.5 0 .823.677 1.5 1.5 1.5s1.5-.677 1.5-1.5c0-.822-.677-1.5-1.5-1.5zm0 1c.282 0 .5.218.5.5 0 .282-.218.5-.5.5a.493.493 0 0 1-.5-.5c0-.282.218-.5.5-.5zm7.5-1c-.823 0-1.5.678-1.5 1.5 0 .823.677 1.5 1.5 1.5s1.5-.677 1.5-1.5c0-.822-.677-1.5-1.5-1.5zm0 1c.282 0 .5.218.5.5 0 .282-.218.5-.5.5a.493.493 0 0 1-.5-.5c0-.282.218-.5.5-.5zm5-5c-.823 0-1.5.678-1.5 1.5 0 .823.677 1.5 1.5 1.5s1.5-.677 1.5-1.5c0-.822-.677-1.5-1.5-1.5zm0 1c.282 0 .5.218.5.5 0 .282-.218.5-.5.5a.493.493 0 0 1-.5-.5c0-.282.218-.5.5-.5z" overflow="visible" transform="translate(0 -1020.362)"></path><path fill="#25b39e" fill-rule="evenodd" style="line-height:normal;text-indent:0;text-align:start;text-decoration-line:none;text-decoration-style:solid;text-decoration-color:#000;text-transform:none;block-progression:tb;isolation:auto;mix-blend-mode:normal" d="M31.514 1028.355a.5.5 0 0 0-.416.211l-2.782 3.782a.5.5 0 1 0 .805.592l2.781-3.782a.5.5 0 0 0-.388-.803zm-4.285 5.22a.5.5 0 0 0-.35.136l-4.426 4.058a.5.5 0 1 0 .676.737l4.426-4.059a.5.5 0 0 0-.326-.873zm-9.313 2.35a.5.5 0 0 0-.227.934l3.131 1.88a.5.5 0 1 0 .516-.858l-3.133-1.879a.5.5 0 0 0-.287-.076zm-1.65.157a.5.5 0 0 0-.344.15l-3.44 3.44a.5.5 0 1 0 .707.707l3.44-3.44a.5.5 0 0 0-.363-.857zM.51 1039.357a.5.5 0 0 0-.3.912l3.57 2.536a.5.5 0 0 0 .577-.817l-3.568-2.533a.5.5 0 0 0-.28-.098zm10.486 1.29a.5.5 0 0 0-.133.018l-4.912 1.405a.5.5 0 1 0 .276.96l4.912-1.402a.5.5 0 0 0-.143-.982z" overflow="visible" transform="translate(0 -1020.362)"></path><path fill="#25b39e" style="line-height:normal;text-indent:0;text-align:start;text-decoration-line:none;text-decoration-style:solid;text-decoration-color:#000;text-transform:none;block-progression:tb;isolation:auto;mix-blend-mode:normal" d="M5 1041.361c-.823 0-1.5.678-1.5 1.5 0 .823.677 1.5 1.5 1.5s1.5-.677 1.5-1.5c0-.822-.677-1.5-1.5-1.5zm0 1c.282 0 .5.218.5.5 0 .282-.218.5-.5.5a.493.493 0 0 1-.5-.5c0-.282.218-.5.5-.5zm7-3c-.823 0-1.5.678-1.5 1.5 0 .823.677 1.5 1.5 1.5s1.5-.677 1.5-1.5c0-.822-.677-1.5-1.5-1.5zm0 1c.282 0 .5.218.5.5 0 .282-.218.5-.5.5a.493.493 0 0 1-.5-.5c0-.282.218-.5.5-.5zm5-6c-.823 0-1.5.678-1.5 1.5 0 .823.677 1.5 1.5 1.5s1.5-.677 1.5-1.5c0-.822-.677-1.5-1.5-1.5zm0 1c.282 0 .5.218.5.5 0 .282-.218.5-.5.5a.493.493 0 0 1-.5-.5c0-.282.218-.5.5-.5zm5 2c-.823 0-1.5.678-1.5 1.5 0 .823.677 1.5 1.5 1.5s1.5-.677 1.5-1.5c0-.822-.677-1.5-1.5-1.5zm0 1c.282 0 .5.218.5.5 0 .282-.218.5-.5.5a.493.493 0 0 1-.5-.5c0-.282.218-.5.5-.5zm6-6.5c-.823 0-1.5.678-1.5 1.5 0 .823.677 1.5 1.5 1.5s1.5-.677 1.5-1.5c0-.822-.677-1.5-1.5-1.5zm0 1c.282 0 .5.218.5.5 0 .282-.218.5-.5.5a.493.493 0 0 1-.5-.5c0-.282.218-.5.5-.5z" overflow="visible" transform="translate(0 -1020.362)"></path><path fill="#f05542" fill-rule="evenodd" style="line-height:normal;text-indent:0;text-align:start;text-decoration-line:none;text-decoration-style:solid;text-decoration-color:#000;text-transform:none;block-progression:tb;isolation:auto;mix-blend-mode:normal" d="M28.441 1039.223a.5.5 0 0 0-.316.851l3.014 3.135a.5.5 0 1 0 .72-.693l-3.013-3.135a.5.5 0 0 0-.405-.158zm-1.638.9a.5.5 0 0 0-.338.164l-4.13 4.473a.5.5 0 1 0 .735.68l4.13-4.473a.5.5 0 0 0-.397-.844zm-26.326 3.234a.5.5 0 0 0-.319.872l3.64 3.398a.501.501 0 0 0 .684-.732l-3.642-3.399a.5.5 0 0 0-.363-.139zm17.462.381a.5.5 0 0 0-.177.967l3.097 1.238a.5.5 0 1 0 .371-.927l-3.097-1.239a.5.5 0 0 0-.194-.039zm-1.748.262a.5.5 0 0 0-.306.113l-3.39 2.713a.5.5 0 1 0 .622.781l3.39-2.713a.5.5 0 0 0-.316-.894Zm-10.16 3.361a.5.5 0 1 0 0 1H11a.5.5 0 1 0 0-1H6.031z" overflow="visible" transform="translate(0 -1020.362)"></path><path fill="#f05542" style="line-height:normal;text-indent:0;text-align:start;text-decoration-line:none;text-decoration-style:solid;text-decoration-color:#000;text-transform:none;block-progression:tb;isolation:auto;mix-blend-mode:normal" d="M5 1046.361c-.823 0-1.5.678-1.5 1.5 0 .823.677 1.5 1.5 1.5s1.5-.677 1.5-1.5c0-.822-.677-1.5-1.5-1.5zm0 1c.282 0 .5.218.5.5 0 .282-.218.5-.5.5a.493.493 0 0 1-.5-.5c0-.282.218-.5.5-.5zm7-1c-.823 0-1.5.678-1.5 1.5 0 .823.677 1.5 1.5 1.5s1.5-.677 1.5-1.5c0-.822-.677-1.5-1.5-1.5zm0 1c.282 0 .5.218.5.5 0 .282-.218.5-.5.5a.493.493 0 0 1-.5-.5c0-.282.218-.5.5-.5zm5-5c-.823 0-1.5.678-1.5 1.5 0 .823.677 1.5 1.5 1.5s1.5-.677 1.5-1.5c0-.822-.677-1.5-1.5-1.5zm0 1c.282 0 .5.218.5.5 0 .282-.218.5-.5.5a.493.493 0 0 1-.5-.5c0-.282.218-.5.5-.5zm5 1c-.823 0-1.5.678-1.5 1.5 0 .823.677 1.5 1.5 1.5s1.5-.677 1.5-1.5c0-.822-.677-1.5-1.5-1.5zm0 1c.282 0 .5.218.5.5 0 .282-.218.5-.5.5a.493.493 0 0 1-.5-.5c0-.282.218-.5.5-.5zm5.5-7c-.823 0-1.5.678-1.5 1.5 0 .823.677 1.5 1.5 1.5s1.5-.677 1.5-1.5c0-.822-.677-1.5-1.5-1.5zm0 1c.282 0 .5.218.5.5 0 .282-.218.5-.5.5a.493.493 0 0 1-.5-.5c0-.282.218-.5.5-.5z" overflow="visible" transform="translate(0 -1020.362)"></path></g></svg>