<?xml version="1.0" standalone="no"?>
<!DOCTYPE svg PUBLIC "-//W3C//DTD SVG 20010904//EN"
 "http://www.w3.org/TR/2001/REC-SVG-20010904/DTD/svg10.dtd">
<svg version="1.0" xmlns="http://www.w3.org/2000/svg"
 width="600.000000pt" height="600.000000pt" viewBox="0 0 600.000000 600.000000"
 preserveAspectRatio="xMidYMid meet">
<metadata>
Created by potrace 1.14, written by Peter Selinger 2001-2017
</metadata>
<g transform="translate(0.000000,600.000000) scale(0.100000,-0.100000)"
fill="#000000" stroke="none">
<path d="M3197 5884 c-3 -3 -23 -8 -44 -11 -64 -8 -67 -9 -88 -20 -11 -6 -25
-8 -32 -6 -6 2 -14 -1 -18 -6 -3 -6 -17 -11 -30 -11 -13 0 -27 -4 -30 -10 -3
-5 -19 -10 -35 -10 -15 0 -30 -6 -32 -12 -3 -7 -15 -13 -29 -13 -15 0 -23 -5
-21 -14 2 -10 -4 -12 -23 -7 -15 4 -24 3 -21 -2 2 -4 -4 -14 -16 -21 -11 -7
-18 -9 -15 -4 3 5 -3 10 -14 10 -10 1 -19 -3 -19 -8 0 -6 5 -7 10 -4 6 3 10 3
10 -2 0 -4 -22 -15 -49 -24 -37 -12 -53 -14 -62 -5 -9 8 -11 7 -6 -6 4 -10 3
-18 -1 -19 -38 -4 -92 -26 -92 -38 0 -10 -45 -5 -64 6 -6 4 -5 -1 3 -10 14
-17 10 -21 -21 -18 -10 1 -18 -3 -18 -9 0 -6 -4 -8 -10 -5 -5 3 -10 2 -10 -4
0 -6 -7 -8 -15 -5 -8 4 -17 -1 -21 -10 -3 -9 -10 -13 -15 -10 -15 9 -50 -6
-43 -18 5 -8 1 -9 -11 -5 -9 4 -24 2 -31 -4 -8 -6 -28 -9 -47 -6 -17 3 -26 3
-19 0 25 -10 12 -25 -18 -20 -23 5 -28 3 -23 -8 3 -11 1 -13 -10 -10 -8 4 -21
0 -28 -7 -20 -19 -41 -21 -50 -6 -4 7 -11 9 -15 5 -4 -3 -1 -14 7 -23 11 -14
10 -15 -7 -12 -10 1 -22 7 -25 12 -10 13 -29 -3 -23 -19 4 -10 0 -12 -15 -8
-20 5 -26 -4 -22 -32 1 -5 -6 -1 -14 10 -16 20 -16 20 -21 -2 -3 -12 -12 -19
-18 -17 -7 3 -19 -2 -26 -10 -7 -9 -16 -14 -20 -11 -4 3 -13 -2 -20 -10 -6 -7
-18 -11 -26 -8 -9 3 -14 -1 -14 -12 0 -14 -3 -15 -15 -5 -12 10 -16 8 -24 -11
-5 -13 -10 -18 -10 -11 -2 22 -31 13 -31 -10 -1 -21 -2 -21 -11 -5 -13 22 -29
13 -29 -16 0 -16 -3 -19 -9 -8 -5 7 -14 10 -20 7 -6 -4 -8 -12 -5 -18 4 -6 -2
-8 -17 -3 -13 3 -19 3 -14 -2 10 -7 11 -15 6 -40 0 -4 -6 -2 -13 5 -15 15 -32
16 -23 2 9 -14 -8 -13 -23 2 -9 9 -12 7 -12 -11 0 -14 4 -20 12 -15 7 4 8 3 4
-5 -4 -6 -12 -9 -17 -5 -6 3 -21 -6 -33 -19 -13 -14 -26 -24 -28 -21 -7 7 -58
-73 -58 -91 0 -8 -4 -15 -8 -15 -4 0 -8 -10 -9 -22 -1 -11 -6 -24 -10 -27 -5
-3 -10 -17 -10 -30 -1 -13 -7 -27 -13 -31 -6 -4 -10 -11 -9 -16 1 -5 -3 -22
-9 -37 -7 -16 -10 -33 -6 -38 3 -5 -1 -12 -9 -15 -8 -3 -14 -13 -12 -22 1 -9
-2 -26 -8 -37 -6 -11 -10 -26 -9 -32 2 -7 -2 -13 -8 -13 -5 0 -10 -11 -10 -25
0 -14 -5 -25 -11 -25 -6 0 -9 -8 -7 -17 2 -10 -4 -26 -13 -37 -10 -10 -16 -26
-14 -36 2 -10 -3 -21 -11 -24 -9 -3 -13 -10 -9 -16 3 -5 -1 -23 -10 -40 -8
-16 -13 -30 -9 -30 4 0 1 -6 -5 -14 -7 -8 -14 -22 -16 -32 -2 -11 -15 -47 -29
-81 -13 -35 -22 -63 -19 -63 3 0 1 -6 -4 -12 -6 -7 -11 -20 -12 -28 -2 -24 -9
-65 -11 -65 -8 0 -5 -144 2 -159 7 -13 7 -16 -1 -12 -6 4 -11 3 -11 -2 0 -6 8
-13 17 -16 15 -6 15 -8 3 -16 -12 -8 -12 -10 2 -15 9 -4 15 -12 12 -19 -3 -7
2 -19 10 -26 9 -7 13 -16 10 -21 -3 -5 0 -9 5 -9 6 0 11 -7 11 -15 0 -8 5 -15
12 -15 6 0 8 -3 5 -6 -8 -8 20 -60 51 -94 43 -46 48 -69 54 -252 2 -38 5 -68
8 -68 3 0 5 -26 4 -57 0 -32 5 -70 12 -84 7 -15 10 -29 7 -33 -4 -3 0 -6 8 -6
11 0 11 -2 -1 -10 -13 -8 -13 -10 1 -10 13 0 16 -9 15 -37 -2 -21 2 -47 8 -58
5 -11 10 -29 11 -40 2 -21 6 -34 36 -104 36 -82 18 -115 -58 -107 -21 3 -40 5
-43 6 -3 1 -8 2 -12 1 -5 0 -8 3 -8 8 0 11 -19 9 -39 -3 -9 -6 -12 -5 -8 1 4
6 0 13 -8 17 -8 3 -15 0 -15 -7 0 -7 -3 -8 -8 -2 -11 15 -32 17 -32 2 0 -8 -4
-7 -10 3 -6 9 -10 11 -10 3 0 -7 -7 -10 -15 -7 -8 4 -17 -1 -21 -10 -3 -9 -10
-13 -15 -10 -8 5 -13 -9 -10 -28 0 -5 -4 -8 -9 -8 -6 0 -10 -7 -10 -16 0 -8
-4 -12 -10 -9 -5 3 -10 2 -10 -4 0 -5 5 -13 10 -16 6 -4 7 -12 3 -18 -10 -16
-10 -98 0 -104 4 -3 3 -11 -4 -19 -6 -8 -7 -14 -2 -14 7 0 13 -30 16 -87 0 -7
5 -13 10 -13 6 0 7 -3 4 -7 -4 -3 -2 -12 4 -20 9 -10 8 -13 -1 -13 -9 0 -10
-3 -1 -13 6 -8 8 -17 4 -20 -3 -4 -1 -7 6 -7 8 0 11 -7 7 -15 -3 -9 1 -18 8
-21 8 -3 13 -13 11 -22 -3 -24 15 -73 26 -66 5 3 6 -2 3 -10 -4 -10 -1 -16 7
-16 7 0 10 -3 6 -6 -3 -3 3 -22 13 -42 11 -19 16 -40 13 -45 -3 -6 -1 -7 5 -3
7 4 12 1 12 -8 0 -9 8 -25 17 -36 10 -11 18 -24 18 -28 0 -16 112 -132 119
-124 3 3 6 0 6 -7 0 -7 4 -10 9 -7 5 4 11 3 13 -1 1 -5 22 -18 46 -30 24 -12
40 -18 37 -13 -3 6 -1 10 4 10 6 0 11 -4 11 -8 0 -5 6 -9 13 -10 6 0 40 -3 74
-6 34 -2 68 -8 74 -12 8 -4 9 -3 5 4 -5 8 0 11 16 8 13 -3 26 -5 31 -5 4 -1 7
-8 7 -16 0 -8 4 -15 8 -15 4 0 9 -8 10 -17 4 -38 23 -93 31 -93 4 0 15 -19 26
-42 19 -45 76 -130 107 -161 10 -10 18 -23 18 -30 0 -7 4 -6 10 3 8 12 10 11
10 -6 0 -12 11 -26 25 -34 13 -7 27 -22 31 -32 3 -10 9 -16 14 -13 4 3 10 -2
14 -10 3 -8 12 -15 21 -15 8 0 15 -7 15 -16 0 -8 5 -12 10 -9 6 3 10 2 10 -3
0 -12 58 -72 70 -72 6 0 10 -4 10 -10 0 -5 7 -10 15 -10 8 0 15 -4 15 -8 0 -5
11 -15 25 -22 14 -7 25 -19 25 -26 0 -6 14 -17 30 -23 17 -5 33 -17 36 -26 3
-8 10 -15 15 -15 4 0 25 -16 46 -35 21 -19 46 -38 56 -41 9 -3 15 -10 12 -15
-4 -5 -3 -9 2 -9 4 0 20 -10 35 -23 14 -12 36 -30 47 -39 12 -10 21 -14 21
-10 0 4 4 2 8 -4 4 -6 33 -32 65 -58 122 -99 184 -175 218 -268 17 -48 17 -48
-4 -49 -12 0 -29 -2 -38 -4 -28 -5 -84 11 -82 23 2 7 -4 9 -15 5 -15 -6 -15
-5 -3 10 7 9 9 17 3 17 -17 0 -23 -30 -7 -36 8 -4 12 -10 9 -16 -10 -16 -33
26 -28 52 4 17 3 21 -4 12 -5 -8 -12 -13 -16 -13 -20 3 -26 -2 -32 -24 -3 -14
-10 -25 -15 -25 -5 0 -9 -6 -9 -13 0 -7 -9 -23 -20 -35 -28 -29 -27 -27 -5
-53 11 -13 13 -18 5 -12 -12 9 -20 7 -37 -13 -12 -13 -18 -24 -15 -24 4 0 -29
-21 -73 -47 -44 -26 -81 -51 -83 -55 -2 -4 -10 -8 -18 -8 -9 0 -13 -4 -10 -9
3 -4 -6 -13 -19 -19 -14 -7 -25 -16 -25 -22 0 -6 -5 -8 -10 -5 -6 3 -13 -1
-16 -9 -3 -8 -14 -18 -25 -21 -10 -4 -19 -12 -19 -20 0 -11 -21 -26 -41 -29
-3 -1 -14 -10 -25 -20 -20 -21 -148 -106 -159 -106 -3 0 -16 -9 -27 -20 -22
-20 -27 -34 -30 -82 -1 -17 -5 -25 -14 -21 -8 3 -12 8 -9 12 2 4 -2 8 -9 8 -7
0 -13 -6 -13 -13 0 -7 4 -11 8 -9 3 3 12 -2 18 -9 9 -11 9 -14 -1 -12 -7 1
-18 5 -25 9 -7 4 -14 -1 -18 -14 -4 -11 -12 -18 -19 -16 -7 3 -18 2 -25 -2 -6
-4 9 -9 34 -9 35 -2 44 1 39 10 -6 10 -5 10 8 0 24 -19 2479 -13 2486 6 3 9
-3 12 -14 10 -11 -2 -18 2 -17 8 1 6 -5 11 -13 11 -17 0 -19 -14 -2 -19 8 -3
6 -7 -4 -11 -10 -3 -22 1 -30 11 -9 11 -10 14 0 8 7 -4 12 -1 12 9 0 10 -16
23 -41 33 -31 12 -42 22 -46 45 -6 29 -72 87 -99 87 -8 0 -51 37 -97 82 -76
76 -104 99 -206 167 -20 13 -38 28 -39 33 -2 4 -8 6 -13 2 -5 -3 -9 0 -9 7 0
7 -3 10 -6 7 -3 -3 -16 4 -28 16 -41 38 -90 76 -98 76 -4 0 -8 7 -8 15 0 8 -8
23 -17 33 -10 9 -18 24 -18 32 0 8 -6 14 -13 12 -8 -1 -11 2 -7 8 3 5 1 10 -4
10 -6 0 -10 6 -8 13 1 6 -4 11 -11 9 -8 -1 -11 2 -8 7 9 15 -22 34 -41 26 -10
-5 -21 -8 -25 -7 -4 1 -4 -6 -1 -15 4 -11 3 -14 -5 -9 -7 4 -12 1 -12 -9 0 -9
-4 -13 -10 -10 -5 3 -7 0 -5 -8 6 -13 -13 -14 -97 -8 -32 2 -47 29 -42 73 3
24 10 45 16 49 5 3 10 10 10 15 1 14 138 173 138 160 0 -2 21 16 47 40 25 24
48 42 51 40 2 -3 15 8 29 25 14 16 31 29 39 29 9 0 12 5 9 10 -3 5 -2 10 3 10
4 0 42 28 83 62 41 35 82 70 93 78 10 8 38 34 62 57 24 22 44 40 44 37 0 -4
22 17 136 127 68 65 98 97 164 176 6 7 8 13 5 13 -2 0 2 8 9 18 51 62 82 109
78 120 -2 7 1 12 8 12 6 0 9 4 5 9 -3 5 -1 12 4 16 5 3 8 14 6 25 -2 12 0 18
6 15 8 -6 13 8 10 27 0 5 9 9 22 9 52 4 92 7 92 9 0 3 36 9 83 14 77 9 200 62
234 101 9 11 17 16 18 10 0 -11 80 75 80 87 0 4 7 8 16 8 8 0 13 4 9 9 -3 5 2
16 11 25 8 9 12 20 9 26 -3 5 0 10 8 10 12 0 21 16 32 60 0 3 9 19 18 37 9 18
18 43 19 57 1 14 7 24 12 23 6 -1 10 3 11 8 0 6 4 16 8 23 5 7 3 12 -5 12 -8
1 -6 6 6 15 14 11 16 15 5 15 -10 0 -10 3 -2 8 6 4 13 16 15 27 1 11 8 23 13
27 6 5 5 8 -3 8 -9 0 -10 5 -4 18 5 9 7 23 5 30 -3 6 -1 12 4 12 5 0 8 47 8
105 0 58 -4 105 -9 105 -5 0 -2 8 5 17 12 14 12 16 0 8 -10 -6 -13 -4 -9 6 8
20 -28 63 -46 56 -11 -4 -13 -1 -9 10 5 12 3 14 -8 8 -18 -12 -49 -14 -43 -3
8 13 -10 10 -25 -4 -11 -11 -12 -10 -6 2 6 11 3 10 -11 -2 -16 -14 -23 -15
-32 -6 -7 7 -12 8 -12 3 0 -6 -19 -11 -43 -13 -57 -4 -70 -6 -86 -16 -10 -7
-12 -6 -6 4 6 10 4 12 -11 6 -34 -13 -38 -11 -41 19 -1 18 9 55 26 90 32 66
53 134 46 146 -3 4 0 9 5 11 6 2 12 14 12 28 1 14 6 28 10 31 5 3 10 43 13 90
6 134 22 198 45 184 4 -3 10 2 14 10 3 8 12 15 21 15 8 0 15 5 15 11 0 5 5 7
10 4 6 -3 10 -2 10 2 0 5 14 17 31 27 49 29 145 130 154 162 11 39 13 234 2
241 -4 3 -2 12 5 21 8 10 9 13 1 9 -8 -5 -12 4 -12 30 -2 122 -9 203 -19 215
-6 8 -7 19 -2 28 5 8 6 18 3 23 -3 4 -7 38 -9 75 -4 63 -10 117 -14 117 -1 0
-2 23 -2 50 0 28 -2 57 -5 65 -3 8 -7 26 -9 40 -2 14 -4 31 -5 38 -1 6 -6 12
-11 12 -4 0 -8 7 -8 15 0 8 -5 15 -12 15 -6 0 -9 3 -5 6 6 6 -1 17 -35 55 -10
10 -18 23 -18 27 0 24 -233 217 -250 207 -6 -3 -10 1 -10 9 0 9 -4 16 -8 16
-5 0 -19 9 -32 20 -12 11 -26 17 -30 15 -5 -3 -10 -2 -12 3 -6 15 -61 52 -69
46 -5 -3 -9 2 -9 10 0 14 -12 20 -32 17 -5 0 -8 5 -8 13 0 8 -5 18 -12 22 -6
4 -8 3 -5 -3 3 -5 0 -10 -7 -10 -8 0 -12 6 -10 12 4 10 -44 40 -55 35 -2 -1
-7 2 -10 8 -8 12 -255 162 -267 162 -5 0 -22 11 -37 25 -15 14 -27 23 -27 20
0 -4 -12 3 -26 14 -15 12 -31 21 -36 21 -5 0 -24 11 -42 25 -18 14 -38 25 -44
25 -7 0 -12 5 -12 10 0 6 -9 10 -19 10 -11 0 -21 3 -23 8 -5 11 -67 42 -84 42
-9 0 -12 5 -9 10 5 9 -8 14 -19 8 -2 -2 -12 4 -22 13 -18 15 -50 31 -66 33 -4
1 -16 9 -28 18 -11 10 -20 15 -20 11 0 -3 -9 2 -19 11 -11 10 -31 19 -44 20
-14 0 -23 4 -21 7 5 9 -58 39 -68 33 -4 -3 -8 0 -8 5 0 6 -6 11 -14 11 -7 0
-19 6 -26 14 -6 8 -18 12 -26 9 -8 -3 -14 -1 -14 4 0 5 -21 15 -47 22 -27 8
-50 18 -53 22 -3 4 -21 8 -40 10 -19 2 -38 8 -42 14 -5 6 -8 4 -8 -5 0 -11 -2
-12 -8 -2 -5 7 -11 10 -15 6z m-1263 -525 c3 -3 -5 -5 -19 -5 -13 0 -22 3 -19
7 4 8 30 6 38 -2z m-49 -18 c3 -5 2 -12 -3 -15 -5 -3 -9 1 -9 9 0 17 3 19 12
6z m-75 -35 c0 -3 -4 -8 -10 -11 -5 -3 -10 -1 -10 4 0 6 5 11 10 11 6 0 10 -2
10 -4z m-180 -90 c0 -2 -8 -10 -17 -17 -16 -13 -17 -12 -4 4 13 16 21 21 21
13z m-67 -91 c-3 -9 -8 -14 -10 -11 -3 3 -2 9 2 15 9 16 15 13 8 -4z m1968
-4409 c-6 -7 -9 -22 -5 -32 5 -18 5 -18 -6 -1 -9 14 -9 22 0 33 7 7 15 14 17
14 3 0 0 -6 -6 -14z m779 -657 c0 -6 -4 -7 -10 -4 -5 3 -10 11 -10 16 0 6 5 7
10 4 6 -3 10 -11 10 -16z m-3 -34 c0 -8 -4 -12 -9 -9 -5 3 -6 10 -3 15 9 13
12 11 12 -6z"/>
<path d="M1895 60 c-4 -6 -10 -8 -15 -5 -5 3 -14 -4 -20 -15 -12 -22 -1 -27
19 -8 11 11 13 10 7 -2 -4 -8 0 -6 8 4 15 19 21 36 12 36 -3 0 -8 -5 -11 -10z"/>
</g>
</svg>
